<svg xmlns="http://www.w3.org/2000/svg" viewBox="0 0 2070.69 1152.04">
  <defs>
    <style>
      .cls-1 {
        fill: #262626;
      }

      .cls-2, .cls-6 {
        fill: #8e1b20;
      }

      .cls-3 {
        fill: #626262;
      }

      .cls-4 {
        fill: #f2f2f2;
      }

      .cls-5 {
        fill: #102d65;
      }

      .cls-6 {
        font-size: 250px;
        font-family: Formula1-Display-Bold, Formula1;
        font-weight: 700;
      }

      .cls-7 {
        fill: #ceb735;
      }

      .cls-8 {
        fill: #fff;
      }
    </style>
  </defs>
  <g id="Layer_2" data-name="Layer 2">
    <g id="baclground-objects">
      <rect class="cls-1" x="594.48" y="193.76" width="127" height="224" transform="translate(481.52 -398.01) rotate(51)"/>
      <rect class="cls-2" x="205.64" y="236.25" width="470.42" height="318.32" transform="translate(134.87 -111.61) rotate(17)"/>
      <polygon class="cls-3" points="759.49 119.76 712.49 165.76 984.49 183.76 759.49 119.76"/>
    </g>
    <g id="main">
      <polygon class="cls-4" points="1981.48 119.76 1981.48 1079.76 61.48 1079.76 61.48 357.76 191.76 341.61 201.13 340.45 224.62 337.54 233.99 336.38 838.54 261.44 843.88 260.77 932.8 249.75 959.54 246.44 998.71 241.58 1025.44 238.27 1242.17 211.4 1302.34 203.95 1426.38 188.57 1435.74 187.41 1468.01 183.41 1477.36 182.25 1575.44 170.09 1584.81 168.93 1615.81 165.09 1671.95 158.13 1749.68 148.49 1851.28 135.9 1931.67 125.93 1981.48 119.76"/>
      <polygon class="cls-5" points="1981.48 119.76 1981.48 1079.76 1263.8 1079.76 1931.67 125.93 1981.48 119.76"/>
      <text id="driver-number" class="cls-6" transform="translate(1516.15 754.54)">33</text>
      <polygon class="cls-5" points="1851.28 135.9 1190.38 1079.76 1097.61 1079.76 1749.68 148.49 1851.28 135.9"/>
      <polygon class="cls-7" points="1671.95 158.13 1026.63 1079.76 975.36 1079.76 1615.81 165.09 1671.95 158.13"/>
      <polygon class="cls-5" points="393.81 599.64 388.08 595.63 560.15 349.88 563.28 352.07 565.89 353.9 393.81 599.64"/>
      <polygon class="cls-5" points="363.54 599.86 357.8 595.85 529.88 350.1 532.48 351.92 535.61 354.12 363.54 599.86"/>
      <polygon class="cls-5" points="375.54 664.86 369.8 660.85 603.23 327.48 606.52 329.78 608.96 331.5 375.54 664.86"/>
      <polygon class="cls-8" points="1820.7 842.01 1814.97 838 1933.71 668.42 1936.44 670.34 1939.44 672.44 1820.7 842.01"/>
      <g id="Layer_4" data-name="Layer 4">
        <polygon class="cls-5" points="59.17 932.73 53.44 928.71 338.75 521.25 342.52 523.89 344.48 525.26 59.17 932.73"/>
        <polygon class="cls-5" points="58.81 967.39 53.08 963.38 356.83 529.58 359.84 531.69 362.56 533.59 58.81 967.39"/>
        <polygon class="cls-5" points="5.73 618.94 2.27 616.51 0 614.92 199.04 330.65 204.78 334.67 5.73 618.94"/>
        <polygon class="cls-5" points="51.25 598.2 48.65 596.38 45.52 594.18 287.83 248.13 293.56 252.15 51.25 598.2"/>
        <rect class="cls-5" x="555.02" y="142.9" width="4.42" height="1047.88" transform="translate(483.26 -199.02) rotate(35)"/>
        <polygon class="cls-5" points="287.5 1118.16 271.13 1106.69 626.17 599.64 633.78 604.97 642.54 611.1 287.5 1118.16"/>
        <polygon class="cls-5" points="699.04 619.13 690.19 612.93 682.67 607.66 1037.71 100.61 1054.08 112.08 699.04 619.13"/>
        <polygon class="cls-5" points="903.04 411.13 894.83 405.38 886.67 399.67 1091.29 107.43 1107.67 118.89 903.04 411.13"/>
        <polygon class="cls-5" points="473.37 1097.8 457 1086.33 812.04 579.28 819.33 584.38 822.06 586.29 828.41 590.75 473.37 1097.8"/>
        <polygon class="cls-5" points="1126.73 629.82 1120.26 625.28 1441.8 166.08 1445.14 168.42 1448.27 170.61 1126.73 629.82"/>
        <polygon class="cls-5" points="1148.06 651.97 1141.59 647.43 1488.46 152.04 1491.99 154.51 1494.94 156.58 1148.06 651.97"/>
        <polygon class="cls-5" points="1263.95 627.94 1257.48 623.41 1604.35 128.02 1607.92 130.52 1610.83 132.56 1263.95 627.94"/>
        <polygon class="cls-5" points="1167.91 396 1146.63 381.1 1130.67 369.92 1389.68 0 1426.93 26.08 1167.91 396"/>
        <polygon class="cls-8" points="1701.9 628.59 1699.15 626.66 1696.66 624.92 1994.78 199.17 2000.02 202.83 1701.9 628.59"/>
        <polygon class="cls-8" points="1735.82 628.14 1733.37 626.42 1730.59 624.47 2065.45 146.24 2070.69 149.9 1735.82 628.14"/>
        <polygon class="cls-8" points="1502.59 1152.04 1497.35 1148.37 1739.15 803.05 1741.89 804.97 1744.38 806.72 1502.59 1152.04"/>
        <polygon class="cls-8" points="1559.93 1113.27 1554.69 1109.61 1765.15 809.05 1767.74 810.87 1770.38 812.72 1559.93 1113.27"/>
      </g>
    </g>
  </g>
</svg>
