<svg xmlns="http://www.w3.org/2000/svg" viewBox="0 0 1016.62 607.6"><defs><style>.cls-1{fill:#fae043;}.cls-2{fill:#ed2839;}</style></defs><g id="Layer_2" data-name="Layer 2"><g id="Belgium"><rect class="cls-1" width="1016.62" height="607.6"/><polygon class="cls-2" points="1016.62 607.6 683.99 607.6 619.28 0 1016.62 0 1016.62 607.6"/><polygon points="332.63 607.6 0 607.6 0 0 352.24 0 332.63 607.6"/><rect class="cls-2" x="56.8" y="42.28" width="13.18" height="565.31"/><rect class="cls-2" x="81.14" width="6.08" height="231.92"/><rect class="cls-2" x="101.42" width="5.07" height="411.41"/><rect class="cls-2" x="217.03" y="243.07" width="6.08" height="216"/><rect class="cls-2" x="639.9" y="115.96" width="6.08" height="392.8"/><rect class="cls-2" x="458.38" y="140.65" width="3.04" height="399.55"/><rect class="cls-2" x="529.37" width="10.14" height="222.79"/><rect class="cls-2" x="503" y="9.83" width="5.31" height="238.31"/><rect class="cls-2" x="486.77" width="4.06" height="248.14"/><rect x="582.1" y="210.62" width="6.08" height="396.97"/><rect x="614.55" width="10.14" height="210.62"/><rect x="402.61" y="42.28" width="3.04" height="242.37"/><rect x="515.17" y="248.14" width="4.06" height="210.93"/><rect x="873.14" width="8.11" height="459.07"/><rect x="753.48" y="100.09" width="3.04" height="317.41"/><rect x="860.97" y="105.31" width="5.07" height="353.76"/><rect x="894.44" y="346.51" width="5.07" height="261.09"/><rect class="cls-1" x="990.77" width="5.07" height="312.36"/><rect class="cls-1" x="966.44" width="8.11" height="340.42"/><rect class="cls-1" x="797.08" y="73.72" width="13.18" height="161.24"/><rect class="cls-1" x="686.55" y="35.18" width="5.07" height="111.55"/><rect class="cls-1" x="666.27" y="325.21" width="11.15" height="214.99"/><rect class="cls-1" x="281.93" y="29.1" width="4.06" height="343.77"/><rect class="cls-1" x="140.97" y="265.38" width="5.07" height="342.21"/><rect class="cls-1" x="176.12" width="8.46" height="231.92"/></g></g></svg>