<svg xmlns="http://www.w3.org/2000/svg" xmlns:xlink="http://www.w3.org/1999/xlink" viewBox="0 0 1016.62 835.04"><defs><style>.cls-1{fill:none;}.cls-2{clip-path:url(#clip-path);}.cls-3{fill:#fefefe;}.cls-4{fill:#009146;}.cls-5{fill:#cd2b37;}</style><clipPath id="clip-path" transform="translate(0 182.85)"><rect class="cls-1" width="1016.62" height="607.6"/></clipPath></defs><g id="Layer_2" data-name="Layer 2"><g id="Itali"><g class="cls-2"><path class="cls-3" d="M336.84,0H679.75V607.41H336.84q-.07-87.7-.14-175.41Q336.73,216,336.84,0Z" transform="translate(0 182.85)"/><path class="cls-4" d="M362,0l-25.2,607.41S118,607.33,8.56,607.6c-7.16,0-8.57-1.26-8.56-7.66Q.36,303.7,0,7.48C0,1.08,1.4-.2,8.56-.18,118,.08,362,0,362,0Z" transform="translate(0 182.85)"/><path class="cls-5" d="M679.75,607.41,655.79,0s242.64.06,352-.15c6.6,0,8.86.52,8.85,7.39q-.42,296.46,0,592.94c0,6.87-2.25,7.39-8.85,7.38C898.43,607.35,679.75,607.41,679.75,607.41Z" transform="translate(0 182.85)"/><rect class="cls-3" x="52.58" y="109.91" width="7.94" height="482.34"/><rect class="cls-3" x="71.88" y="15.93" width="7.94" height="482.34"/><rect class="cls-3" x="106.3" y="422.13" width="7.94" height="198.36"/><rect class="cls-5" x="210.46" y="399.1" width="7.94" height="198.36"/><rect class="cls-5" x="237.08" y="551.75" width="3.97" height="198.36"/><rect class="cls-5" x="178.93" y="360.66" width="14.69" height="344.35"/><rect class="cls-5" x="380.07" y="178.63" width="3.97" height="620.05"/><rect class="cls-5" x="391.73" y="507.42" width="9.06" height="295.26"/><rect class="cls-5" x="408.36" y="213.04" width="9.06" height="295.26"/><rect class="cls-4" x="527.35" y="163.4" width="9.06" height="339.58"/><rect class="cls-4" x="549.73" y="286.44" width="9.06" height="339.58"/><rect class="cls-4" x="509.44" y="434.48" width="9.06" height="339.58"/><rect class="cls-4" x="638.55" width="9.06" height="339.58"/><rect class="cls-3" x="758.86" y="147.4" width="9.06" height="339.58"/><rect class="cls-3" x="730.18" y="311.73" width="9.06" height="339.58"/><rect class="cls-3" x="785.33" y="382.85" width="4.53" height="339.58"/><rect class="cls-4" x="982.81" y="126.59" width="9.06" height="339.58"/><rect class="cls-4" x="951.73" y="296.38" width="9.06" height="339.58"/><rect class="cls-4" x="874.61" y="495.46" width="4.53" height="339.58"/></g></g></g></svg>