<svg xmlns="http://www.w3.org/2000/svg" viewBox="0 0 1016.62 621.64"><defs><style>.cls-1{fill:#ce1126;}.cls-2{fill:#fff;}.cls-3{fill:#e6e6e6;}.cls-4{fill:#f2f2f2;}.cls-5{fill:#b2041d;}.cls-6{fill:#ad021b;}</style></defs><g id="Layer_2" data-name="Layer 2"><g id="Monaco"><rect class="cls-1" width="1016.62" height="621.64"/><polygon class="cls-2" points="1016.62 252.45 0 310.82 0 621.64 1016.62 621.64 1016.62 252.45"/><rect class="cls-3" x="105.48" y="50.98" width="10.65" height="386.06"/><rect class="cls-3" x="131.34" y="180.74" width="10.65" height="386.06"/><rect class="cls-3" x="889.62" y="28.63" width="5.32" height="386.06"/><rect class="cls-3" x="508.62" y="18.63" width="5.32" height="386.06"/><rect class="cls-3" x="472.83" y="108.38" width="5.32" height="386.06"/><rect class="cls-4" x="670.58" y="60.18" width="11.41" height="161.48" transform="translate(1352.56 281.84) rotate(180)"/><rect class="cls-4" x="222.65" y="9.49" width="11.41" height="161.48" transform="translate(456.7 180.46) rotate(180)"/><rect class="cls-1" x="929.97" y="289.8" width="5.7" height="259.93" transform="translate(1865.65 839.53) rotate(180)"/><rect class="cls-1" x="231.2" y="307.08" width="5.7" height="259.93" transform="translate(468.11 874.09) rotate(180)"/><rect class="cls-1" x="247.32" y="211.76" width="5.7" height="259.93" transform="translate(500.35 683.46) rotate(180)"/><rect class="cls-5" x="588.65" y="243.81" width="5.7" height="259.93" transform="translate(1183 747.55) rotate(180)"/><rect class="cls-6" x="353.82" y="211.76" width="11.77" height="259.93" transform="translate(719.41 683.46) rotate(180)"/></g></g></svg>