<svg xmlns="http://www.w3.org/2000/svg" viewBox="0 0 1016.89 607.6"><defs><style>.cls-1{fill:#ae1c27;}.cls-2{fill:#fff;}.cls-3{fill:#21468c;}</style></defs><g id="Layer_2" data-name="Layer 2"><g id="Netherlands"><rect class="cls-1" width="1016.89" height="607.6"/><polygon class="cls-2" points="1016.62 607.6 0 607.6 0 202.75 1016.62 221.51 1016.62 607.6"/><polygon class="cls-3" points="1016.62 390.52 0 409.62 0 607.6 1016.62 607.6 1016.62 390.52"/><rect class="cls-3" x="40.32" y="26.3" width="9.13" height="214.48"/><rect class="cls-3" x="60.1" y="44.06" width="9.13" height="214.48"/><rect class="cls-3" x="78.35" y="70.44" width="4.56" height="311.8"/><rect class="cls-3" x="939.31" y="11.08" width="9.13" height="307.3"/><rect class="cls-3" x="228.94" y="70.44" width="12.17" height="222.35"/><rect class="cls-3" x="740.04" y="22.36" width="6.08" height="222.35"/><rect class="cls-3" x="447.99" y="22.36" width="6.08" height="347.42"/><rect class="cls-2" x="720.27" y="53.56" width="6.08" height="222.35"/><rect class="cls-2" x="204.6" width="6.09" height="248.64" transform="translate(415.29 248.64) rotate(180)"/><rect class="cls-2" x="527.09" y="22.36" width="13.59" height="156.3" transform="translate(1067.76 201.03) rotate(180)"/><rect class="cls-2" x="33.53" y="420.91" width="13.59" height="156.3" transform="translate(80.65 998.12) rotate(180)"/><rect class="cls-2" x="867.92" y="382.24" width="13.59" height="156.3" transform="translate(1749.43 920.78) rotate(180)"/><rect class="cls-2" x="358.24" y="369.78" width="13.59" height="156.3" transform="translate(730.07 895.87) rotate(180)"/><rect class="cls-1" x="481.09" y="180.36" width="6.79" height="280.03" transform="translate(968.96 640.75) rotate(180)"/><rect class="cls-1" x="684.87" y="350.11" width="7.81" height="195.64" transform="translate(1377.56 895.87) rotate(180)"/><rect class="cls-1" x="152.99" y="233.13" width="5.98" height="292.96"/><rect class="cls-1" x="908.68" y="233.13" width="7.81" height="195.64" transform="translate(1825.18 661.89) rotate(180)"/></g></g></svg>