<svg xmlns="http://www.w3.org/2000/svg" viewBox="0 0 1016.62 607.6"><defs><style>.cls-1{fill:#ffc400;}.cls-2{fill:#c60b1e;}.cls-3{fill:#b50b24;}.cls-4{fill:#efb000;}</style></defs><g id="Layer_2" data-name="Layer 2"><g id="Spain"><rect class="cls-1" width="1016.62" height="607.6"/><polygon class="cls-2" points="1016.62 150.38 0 195 0 0 1016.62 0 1016.62 150.38"/><polygon class="cls-2" points="1016.62 607.6 0 607.6 0 457.22 1016.62 411 1016.62 607.6"/><rect class="cls-2" x="136.92" y="199.56" width="7.1" height="211.44"/><rect class="cls-2" x="160.24" y="219.16" width="7.1" height="98.58"/><rect class="cls-3" x="314.13" y="68.74" width="7.73" height="175.54"/><rect class="cls-3" x="713.62" y="7.91" width="14.56" height="307.17"/><rect class="cls-3" x="692.55" y="205.74" width="7.28" height="307.17"/><rect class="cls-3" x="905.41" y="289.22" width="7.28" height="220.48"/><rect class="cls-3" x="528.69" y="55.56" width="7.28" height="445.83"/><rect class="cls-4" x="59.21" y="24.02" width="7.73" height="175.54"/><rect class="cls-4" x="217.41" y="295.04" width="7.73" height="261.98"/><rect class="cls-4" x="236.87" y="228.34" width="7.73" height="261.98"/><rect class="cls-4" x="454.18" y="59.35" width="7.73" height="261.98"/><rect class="cls-4" x="856.28" width="7.73" height="261.98"/></g></g></svg>