<svg xmlns="http://www.w3.org/2000/svg" viewBox="0 0 1016.62 607.6"><defs><style>.cls-1{fill:#00732e;}.cls-2{fill:#fff;}.cls-3{fill:#fe0000;}.cls-4{fill:#ddd;}.cls-5{fill:#005b25;}.cls-6{fill:#1a1a1a;}</style></defs><g id="Layer_2" data-name="Layer 2"><g id="Abu_Dhabi"><g id="flag"><rect class="cls-1" width="1016.62" height="202.53"/><rect class="cls-2" y="202.53" width="1016.62" height="202.53"/><rect y="405.06" width="1016.62" height="202.53"/><rect class="cls-3" width="316.63" height="607.6"/></g><rect class="cls-1" x="231.61" y="34.81" width="7.73" height="320"/><rect class="cls-1" x="199.17" y="121.47" width="9.33" height="228"/><rect x="43.17" y="164.73" width="9.33" height="382.07"/><rect x="13.84" y="11.08" width="8" height="134.39"/><rect class="cls-2" x="139.17" y="53.56" width="19.14" height="434.58"/><rect class="cls-4" x="395.73" y="34.81" width="4.46" height="149.33"/><rect class="cls-4" x="561.84" y="66.81" width="6.67" height="209.1"/><rect class="cls-4" x="532.51" y="184.14" width="8" height="244"/><rect class="cls-5" x="933.84" y="53.56" width="6.67" height="445.5"/><rect class="cls-5" x="738.95" y="66.81" width="10.89" height="288.96"/><rect class="cls-5" x="444.51" y="66.81" width="8" height="204.04"/><rect class="cls-6" x="621.84" y="184.14" width="9.33" height="314.92"/><rect class="cls-6" x="823.17" y="128.14" width="10.27" height="226.67"/><rect class="cls-6" x="341.84" y="373.47" width="8" height="200"/></g></g></svg>