<svg xmlns="http://www.w3.org/2000/svg" xmlns:xlink="http://www.w3.org/1999/xlink" viewBox="0 0 1078.18 710.6"><defs><style>.cls-1{fill:none;}.cls-2{clip-path:url(#clip-path);}.cls-3{fill:#012169;}.cls-4,.cls-6{stroke:#fff;}.cls-4,.cls-5,.cls-6,.cls-7{stroke-miterlimit:80;}.cls-4,.cls-7{stroke-width:120px;}.cls-5,.cls-7{stroke:#c8102e;}.cls-5{stroke-width:80px;}.cls-6{stroke-width:200px;}.cls-8{fill:#eaeaea;}.cls-9{fill:#c8102e;}</style><clipPath id="clip-path" transform="translate(30.78 51.5)"><rect class="cls-1" width="1016.62" height="607.6"/></clipPath></defs><g id="Layer_2" data-name="Layer 2"><g id="UK"><g class="cls-2"><path class="cls-3" d="M0,0V607.6H1016.62V0Z" transform="translate(30.78 51.5)"/><path class="cls-4" d="M0,0,1016.62,607.6m0-607.6L0,607.6" transform="translate(30.78 51.5)"/><path class="cls-5" d="M0,0,1016.62,607.6m0-607.6L0,607.6" transform="translate(30.78 51.5)"/><path class="cls-6" d="M508.31,0V607.6M0,303.8H1016.62" transform="translate(30.78 51.5)"/><path class="cls-7" d="M508.31,0V607.6M0,303.8H1016.62" transform="translate(30.78 51.5)"/></g><g id="Layer_11" data-name="Layer 11"><rect class="cls-8" x="394.8" y="70.63" width="6.22" height="114.67"/><rect class="cls-8" x="278.36" y="60.86" width="4.44" height="80.89"/><rect class="cls-8" x="377.91" y="60.86" width="6.22" height="67.11"/><rect class="cls-8" x="699.69" y="101.3" width="7.11" height="94.67"/><rect class="cls-8" x="1014.36" y="166.63" width="5.33" height="57.78"/><rect class="cls-8" x="66.8" y="454.63" width="7.11" height="80"/><rect class="cls-8" x="405.47" y="553.3" width="7.11" height="80.89"/><rect class="cls-8" x="670.36" y="467.08" width="8.89" height="160.89"/><rect class="cls-8" x="901.47" y="475.08" width="10.67" height="96"/><rect class="cls-8" x="554.8" y="79.52" width="15.11" height="275.78"/><rect class="cls-8" x="539.09" y="79.52" width="5.04" height="219.56"/><rect class="cls-8" x="377.91" y="330.19" width="6.22" height="98.67"/><rect class="cls-8" x="235.69" y="290.19" width="4.44" height="40"/><rect class="cls-8" x="82.8" y="56.41" width="7.11" height="85.33"/><rect class="cls-8" x="994.8" y="330.19" width="7.11" height="98.67"/><rect class="cls-8" x="498.8" y="475.08" width="6.22" height="159.11"/><rect class="cls-8" x="214.36" y="502.63" width="4.44" height="86.22"/><rect class="cls-8" x="835.69" y="141.75" width="7.11" height="54.22"/><rect class="cls-9" x="114.8" y="189.3" width="5.33" height="89.33"/><rect class="cls-9" x="621.47" y="94.41" width="9.78" height="139.56"/><rect class="cls-9" x="753.91" y="54.41" width="5.33" height="89.33"/><rect class="cls-9" x="360.13" y="544.19" width="5.33" height="89.33"/><rect class="cls-9" x="961.91" y="422.41" width="5.33" height="89.33"/><rect class="cls-3" x="339.69" y="144.63" width="5.33" height="89.33"/><rect class="cls-3" x="264.13" y="375.52" width="9.78" height="144.22"/><rect class="cls-3" x="596.58" y="356.75" width="9.78" height="144.22"/><rect class="cls-3" x="493.91" y="96.75" width="9.78" height="144.22"/><rect class="cls-3" x="869.47" y="185.3" width="9.78" height="144.22"/><rect class="cls-3" x="136.13" y="482.52" width="4.89" height="144.22"/><rect class="cls-3" x="792.58" y="217.41" width="4.89" height="294.33"/></g></g></g></svg>