<svg xmlns="http://www.w3.org/2000/svg" viewBox="0 0 1016.62 607.6"><defs><style>.cls-1{fill:#fff;}.cls-2{fill:#cf142b;}.cls-3{fill:#00247d;}.cls-4{fill:#eaeaea;}.cls-5{fill:#c8102e;}.cls-6{fill:#012169;}</style></defs><g id="Layer_2" data-name="Layer 2"><g id="Layer_32" data-name="Layer 32"><rect id="_14" data-name="14" class="cls-1" width="1016.09" height="607.53"/><polygon id="_13" data-name="13" class="cls-2" points="457.23 364.33 457.23 607.53 558.86 607.53 558.86 364.33 1016.09 364.33 1016.09 242.88 558.86 242.88 558.86 0 457.23 0 457.23 242.88 0 242.88 0 364.33 457.23 364.33"/><polygon id="_12" data-name="12" class="cls-3" points="592.74 196.66 592.74 0 921.72 0 592.74 196.66"/><polygon id="_11" data-name="11" class="cls-3" points="592.74 410.87 592.74 607.53 921.72 607.53 592.74 410.87"/><polygon id="_10" data-name="10" class="cls-3" points="423.35 410.87 423.35 607.53 94.37 607.53 423.35 410.87"/><polygon id="_9" data-name="9" class="cls-3" points="423.35 196.66 423.35 0 94.37 0 423.35 196.66"/><polygon id="_8" data-name="8" class="cls-3" points="0 56.48 0 202.5 244.29 202.5 0 56.48"/><polygon id="_7" data-name="7" class="cls-3" points="1016.09 56.48 1016.09 202.5 771.8 202.5 1016.09 56.48"/><polygon id="_6" data-name="6" class="cls-3" points="1016.09 551.05 1016.09 405.02 771.8 405.02 1016.09 551.05"/><polygon id="_5" data-name="5" class="cls-3" points="0 551.05 0 405.02 244.29 405.02 0 551.05"/><polyline id="_4" data-name="4" class="cls-2" points="1016.09 0 959.65 0 621.49 202.5 677.93 202.5 1016.62 0"/><polyline id="_3" data-name="3" class="cls-2" points="394.59 405.01 338.16 405.01 0 607.52 56.44 607.52 395.13 405.01"/><polygon id="_2" data-name="2" class="cls-2" points="282.17 202.66 338.61 202.66 0 0 0 33.96 282.17 202.66"/><polygon id="_1" data-name="1" class="cls-2" points="733.74 404.94 677.3 404.94 1015.91 607.6 1015.91 573.63 733.74 404.94"/><rect class="cls-4" x="359.53" y="30.1" width="6.22" height="114.67"/><rect class="cls-4" x="243.09" y="20.32" width="4.44" height="80.89"/><rect class="cls-4" x="342.64" y="20.32" width="6.22" height="67.11"/><rect class="cls-4" x="664.42" y="60.76" width="7.11" height="94.67"/><rect class="cls-4" x="979.09" y="126.1" width="5.33" height="57.78"/><rect class="cls-4" x="31.53" y="414.1" width="7.11" height="80"/><rect class="cls-4" x="370.2" y="512.76" width="7.11" height="80.89"/><rect class="cls-4" x="635.09" y="426.54" width="8.89" height="160.89"/><rect class="cls-4" x="866.2" y="434.54" width="10.67" height="96"/><rect class="cls-4" x="519.53" y="38.99" width="15.11" height="275.78"/><rect class="cls-4" x="503.82" y="38.99" width="5.04" height="219.56"/><rect class="cls-4" x="342.64" y="289.65" width="6.22" height="98.67"/><rect class="cls-4" x="200.42" y="249.65" width="4.44" height="40"/><rect class="cls-4" x="47.53" y="15.87" width="7.11" height="85.33"/><rect class="cls-4" x="959.53" y="289.65" width="7.11" height="98.67"/><rect class="cls-4" x="463.53" y="434.54" width="6.22" height="159.11"/><rect class="cls-4" x="179.09" y="462.1" width="4.44" height="86.22"/><rect class="cls-4" x="800.42" y="101.21" width="7.11" height="54.22"/><rect class="cls-5" x="79.53" y="148.76" width="5.33" height="89.33"/><rect class="cls-5" x="586.2" y="53.87" width="9.78" height="139.56"/><rect class="cls-5" x="718.64" y="13.87" width="5.33" height="89.33"/><rect class="cls-5" x="324.87" y="503.65" width="5.33" height="89.33"/><rect class="cls-5" x="926.64" y="381.87" width="5.33" height="89.33"/><rect class="cls-6" x="304.42" y="104.1" width="5.33" height="89.33"/><rect class="cls-6" x="228.87" y="334.99" width="9.78" height="144.22"/><rect class="cls-6" x="561.31" y="316.21" width="9.78" height="144.22"/><rect class="cls-6" x="458.64" y="56.21" width="9.78" height="144.22"/><rect class="cls-6" x="834.2" y="144.76" width="9.78" height="144.22"/><rect class="cls-6" x="100.87" y="441.99" width="4.89" height="144.22"/><rect class="cls-6" x="757.31" y="176.87" width="4.89" height="294.33"/></g></g></svg>