<svg xmlns="http://www.w3.org/2000/svg" viewBox="0 0 1016.62 621.64"><defs><style>.cls-1{fill:#b32134;}.cls-2{fill:#fff;}.cls-3{fill:#3b3b6d;}.cls-4{fill:#e5e5e5;}.cls-5{fill:#aa243b;}</style></defs><g id="Layer_2" data-name="Layer 2"><g id="USA"><g id="base_flag" data-name="base flag"><rect class="cls-1" width="1016.62" height="69.07"/><rect class="cls-2" y="69.07" width="1016.62" height="69.07"/><rect class="cls-1" y="138.14" width="1016.62" height="69.07"/><rect class="cls-2" y="207.21" width="1016.62" height="69.07"/><rect class="cls-1" y="276.29" width="1016.62" height="69.07"/><rect class="cls-2" y="345.36" width="1016.62" height="69.07"/><rect class="cls-1" y="414.43" width="1016.62" height="69.07"/><rect class="cls-2" y="483.5" width="1016.62" height="69.07"/><rect class="cls-1" y="552.57" width="1016.62" height="69.07"/><rect class="cls-3" width="458.28" height="345.36"/><rect class="cls-4" x="204.95" y="379.41" width="10.67" height="207.69"/><rect class="cls-4" x="532.06" y="27.86" width="8" height="386.57"/><rect class="cls-5" x="300.95" y="34.54" width="8.89" height="186.61"/><rect class="cls-5" x="65.39" y="129.87" width="7.11" height="194.88"/><rect class="cls-5" x="630.73" y="49.19" width="10.67" height="261.63"/><rect class="cls-5" x="333.84" y="329.19" width="5.33" height="243.56"/><rect class="cls-5" x="851.17" y="373.64" width="5.33" height="213.47"/></g><g id="Layer_22" data-name="Layer 22"><rect class="cls-4" x="88.51" y="45.64" width="5.33" height="217.78"/><rect class="cls-4" x="110.73" y="21.64" width="9.78" height="194.67"/><rect class="cls-4" x="409.39" y="79.41" width="11.56" height="214.22"/><rect class="cls-4" x="229.14" y="180.75" width="9.59" height="134.22"/><rect class="cls-4" x="929.39" y="27.86" width="7.56" height="341.33"/><rect class="cls-4" x="770.28" y="41.19" width="10.67" height="338.7"/><rect class="cls-4" x="799.62" y="49.19" width="7.11" height="161.35"/><rect class="cls-4" x="748.95" y="293.64" width="11.56" height="171.56"/></g></g></g></svg>